Simulation
nRows=15
nColumns=15
endheader
time  TH_x TH_y TH_z SC_y  SC_z  SC_x  AC_y  AC_z  AC_x  GH_y  GH_z  GH_yy  EL_x  PS_y
0.0  0.000000  0.000000  0.000000  -27.549367437425936  3.5970814489931238  5.325895916796365  53.54992990624156  9.757930556093056  3.3285796718821423  6.5440387656603844  5.838507508950132  42.010762817001165  16.059394441668687  120.000000
0.027999999999999973  0.000000  0.000000  0.000000  -26.81884417050105  3.9477212865413596  4.889315072323277  52.96444014980638  9.823290980285188  3.489707206323185  8.441337967509421  6.6236140635976355  39.904170600428984  15.539991360860872  120.000000
0.055999999999999946  0.000000  0.000000  0.000000  -25.900845668793856  4.336021362925261  4.354195707926789  52.36555955524724  9.793000123721619  3.6633891696446366  9.864222081595761  7.383383785165192  38.139791609536815  15.037839129300375  120.000000
0.08399999999999992  0.000000  0.000000  0.000000  -25.09547936539573  4.656651403631909  3.8290441251540224  51.800529529693115  9.707933298007497  3.8297714912924112  11.018113835986856  8.144884245819979  36.53735593020552  14.556134739262912  120.000000
0.11199999999999989  0.000000  0.000000  0.000000  -24.45849652058358  4.908917984806184  3.340230611843772  51.31518614409499  9.61320351341611  3.965818248914601  11.966863943646525  8.938608658658763  35.057941620762634  14.097717273718876  120.000000
0.13999999999999987  0.000000  0.000000  0.000000  -24.013049688853897  5.0888100877290645  2.9222892250814585  50.91797863134995  9.531823053515923  4.072019798988007  12.64174094389964  9.781776617169022  33.79345096269614  13.663627399389652  120.000000
0.16799999999999984  0.000000  0.000000  0.000000  -23.740395619680132  5.205119938415013  2.5861633953940317  50.60914843833774  9.478884923051346  4.153562951776023  13.033160732522735  10.693426433993773  32.76915133456603  13.257231576261104  120.000000
0.1959999999999998  0.000000  0.000000  0.000000  -23.590384698898557  5.286146635391653  2.334865574131734  50.37953324151672  9.457292657971822  4.212931223797495  13.143474083955526  11.686349443673961  31.99117558958704  12.882114233859308  120.000000
0.22399999999999978  0.000000  0.000000  0.000000  -23.53284797948892  5.345625437434902  2.169659545779325  50.214790168007404  9.468045843535084  4.254113979406657  13.007482046387471  12.771585321779984  31.42759025916155  12.54351553291182  120.000000
0.2519999999999998  0.000000  0.000000  0.000000  -23.522702277824038  5.404878060280871  2.085574681746065  50.0974275057346  9.504665235367382  4.280477967083834  12.677193380264608  13.951129063916923  31.0238130343146  12.245786199883051  120.000000
0.27999999999999975  0.000000  0.000000  0.000000  -23.538250157451888  5.473477556969704  2.0822919898767345  50.01114944518078  9.564271029965154  4.295411698139912  12.215053626565854  15.222879349682014  30.712257450660196  11.99424838320391  120.000000
0.3079999999999997  0.000000  0.000000  0.000000  -23.559120635542445  5.562996856776292  2.1569046799333917  49.94142841572562  9.64355166806144  4.298997923471141  11.676097914751633  16.579151923307098  30.427934417720536  11.789797297297785  120.000000
0.3359999999999997  0.000000  0.000000  0.000000  -23.578798267984084  5.678564261081537  2.309918409233911  49.877941187394036  9.742372969003979  4.290530711520698  11.112688130597611  18.008402240202738  30.10708775139435  11.632120345211357  120.000000
0.36399999999999966  0.000000  0.000000  0.000000  -23.602035008200936  5.823268618054701  2.542386918780362  49.81654547505484  9.862503642190743  4.267513937199632  10.574099216616137  19.498367013846735  29.68733128730131  11.517067002169476  120.000000
0.3919999999999996  0.000000  0.000000  0.000000  -23.633855659849058  5.996204565798877  2.8551535386658267  49.75453187218666  10.005895214743642  4.227244090446397  10.09294168110163  21.03361065101287  29.12378046880202  11.438335546976605  120.000000
